# This file uses centimeters as units for non-parametric coordinates.

mtllib Fir_02.mtl
g default
v 27.159729 332.415375 58.436043
v 74.409363 344.861176 -4.615054
v 37.629150 340.251526 -91.944489
v -57.786484 345.560547 -86.860153
v -94.814323 327.297028 -11.561766
v -56.092865 334.467529 59.436417
v -12.310547 460.939209 -19.711351
v -64.134323 374.707977 -14.022156
v -43.248657 370.072754 31.631485
v 7.497375 375.649750 39.964890
v 45.481598 383.582184 -9.650832
v 21.475204 379.290253 -68.579308
v -39.262039 374.116486 -69.143753
v 32.102509 225.540482 -100.268845
v -64.462311 237.686340 -106.598305
v -139.129639 220.579132 -27.752369
v -63.911316 231.998642 87.255775
v 46.393768 220.130997 65.367340
v 83.906372 227.047562 -23.319675
v -24.621796 327.850220 -19.711351
v 57.654877 246.290405 -22.573647
v 18.969193 260.296967 -64.285538
v -59.151657 255.389450 -75.075203
v -111.779465 248.120850 -22.643356
v -57.843185 265.278320 43.906124
v 32.143707 250.037460 40.429012
v -2.296204 0.220765 -19.853661
v -8.710739 0.220765 -24.514101
v -16.639572 0.220765 -24.514099
v -23.054123 0.220765 -19.853659
v -25.504242 0.220765 -12.312905
v -23.054123 0.220765 -4.772154
v -16.639572 0.220765 -0.111711
v -8.710739 0.220765 -0.111711
v -2.296204 0.220765 -4.772154
v 0.153931 0.220765 -12.312906
v 0.971191 131.312515 -18.376417
v -4.186737 131.312515 -22.123871
v -10.562286 131.312515 -22.123871
v -15.720215 131.312515 -18.376415
v -17.690384 131.312515 -12.312906
v -15.720215 131.312515 -6.249396
v -10.562286 131.312515 -2.501942
v -4.186737 131.312515 -2.501942
v 0.971191 131.312515 -6.249396
v 2.941345 131.312515 -12.312906
v -6.694870 213.981613 -16.657839
v -10.390900 213.981613 -19.343147
v -14.959427 213.981613 -19.343147
v -18.655426 213.981613 -16.657837
v -20.067184 213.981613 -12.312909
v -18.655426 213.981613 -7.967985
v -14.959412 213.981613 -5.282674
v -10.390900 213.981613 -5.282674
v -6.694870 213.981613 -7.967987
v -5.283127 213.981613 -12.312909
v 17.780243 194.031662 -97.283318
v -61.290726 205.137466 -91.693016
v -105.089508 189.854141 -16.726366
v -64.132935 200.113754 63.830612
v 17.780212 200.113693 63.830620
v 58.736786 194.869812 -16.726351
v -18.486282 270.626251 -16.726353
v 13.136444 474.619568 -52.369297
v -46.082687 462.025024 -56.136662
v -71.421463 446.941864 -14.859212
v -44.672516 460.377716 27.046124
v 0.917191 478.091949 27.090675
v 29.149170 471.865967 -11.057812
v -9.884399 504.660919 -39.820015
v -33.657532 497.644592 -41.895287
v -45.029648 494.244812 -16.429562
v -42.888870 495.701324 7.440699
v -13.409073 503.919006 13.186699
v 3.093155 508.398743 -12.279026
v -19.889725 528.422974 -27.309092
v -32.116379 525.014771 -28.169804
v -39.110870 523.125122 -15.348481
v -33.878723 524.643799 -1.666445
v -21.652039 528.052002 -0.805737
v -14.657562 529.941650 -13.627060
v -50.583282 577.370239 -7.805250
v 31.963669 400.441162 -73.248756
v -31.833405 395.718079 -76.087288
v -68.468445 397.637543 -23.051445
v -45.651672 403.849548 40.645130
v 16.778702 405.373047 47.905750
v 52.807190 416.240082 -8.763049
v -30.133148 500.170288 -17.397427
v 14.984146 434.801544 -51.005600
v -29.785889 432.276733 -57.969727
v -53.187195 428.090271 -21.421249
v -36.820969 433.306396 23.430870
v 5.544357 432.194489 26.013634
v 32.227646 445.062317 -11.586492
v 13.539566 268.569794 89.961861
v 94.520905 258.606049 7.323994
v 52.975006 288.496735 -97.528358
v -54.660599 272.151825 -119.742905
v -129.728729 270.753723 -37.105034
v -94.482719 275.545502 42.102848
v -3.726425 405.202698 -17.409054
v -68.789352 312.251862 25.254852
v 6.067139 308.127197 49.216858
v 50.417007 306.537964 -2.501089
v 31.197098 326.811340 -57.071087
v -40.837936 317.899536 -84.666183
v -93.571716 307.155731 -49.447876
vt 0.666876 0.541626
vt 0.624637 0.513404
vt 0.488834 0.458204
vt 0.655599 0.571821
vt 0.588813 0.544565
vt 0.521862 0.543470
vt 0.531611 0.581697
vt 0.843250 0.099571
vt 0.861215 0.098512
vt 0.873185 0.397616
vt 0.858690 0.398416
vt 0.879207 0.098108
vt 0.887685 0.396991
vt 0.884413 0.586261
vt 0.874064 0.586769
vt 0.825325 0.101194
vt 0.844216 0.399403
vt 0.897212 0.098271
vt 0.902169 0.396556
vt 0.894752 0.585576
vt 0.863709 0.587181
vt 0.905093 0.584792
vt 0.933270 0.099376
vt 0.951329 0.099832
vt 0.945531 0.396704
vt 0.931085 0.396381
vt 0.969378 0.100072
vt 0.959976 0.397318
vt 0.936283 0.583991
vt 0.925862 0.583779
vt 0.915231 0.098784
vt 0.916632 0.396341
vt 0.987401 0.100166
vt 0.974414 0.398214
vt 0.946662 0.584815
vt 0.915459 0.584111
vt 0.956956 0.586187
vt 0.172791 0.535750
vt 0.170915 0.601643
vt 0.179008 0.671595
vt 0.121048 0.527486
vt 0.233556 0.625191
vt 0.210202 0.672266
vt 0.181927 0.709818
vt 0.081233 0.528844
vt 0.200898 0.712329
vt 0.183482 0.782514
vt 0.366822 0.590409
vt 0.315715 0.437498
vt 0.437107 0.616164
vt 0.329131 0.593278
vt 0.306234 0.472554
vt 0.298536 0.429066
vt 0.286804 0.590491
vt 0.289175 0.528336
vt 0.270927 0.454057
vt 0.241113 0.496435
vt 0.324574 0.858108
vt 0.389139 0.917874
vt 0.398441 0.995047
vt 0.351133 0.825696
vt 0.383594 0.883328
vt 0.437925 0.924723
vt 0.452772 0.891765
vt 0.199694 0.381783
vt 0.256412 0.384036
vt 0.254387 0.471548
vt 0.165774 0.331094
vt 0.273805 0.331445
vt 0.085789 0.268502
vt 0.124198 0.231932
vt 0.538120 0.651352
vt 0.665692 0.651571
vt 0.594550 0.687479
vt 0.535344 0.375180
vt 0.500226 0.292465
vt 0.552587 0.214989
vt 0.662117 0.215150
vt 0.713694 0.338356
vt 0.626599 0.399611
vt 0.738232 0.805642
vt 0.787431 0.733572
vt 0.874731 0.729298
vt 0.913986 0.797960
vt 0.865543 0.871208
vt 0.780426 0.870393
vt 0.382491 0.767984
vt 0.453233 0.777484
vt 0.488185 0.837873
vt 0.203734 0.156548
vt 0.284037 0.152704
vt 0.330029 0.245289
vt 0.807423 0.103161
vt 0.829774 0.400606
vt 0.853349 0.587701
vt 0.173239 0.483354
vt 0.199882 0.465053
vt 0.163079 0.444832
vt 0.176896 0.435755
vt 0.118372 0.382334
vt 0.305673 0.628482
vt 0.276074 0.656072
vt 0.327456 0.659374
vt 0.314779 0.669984
vt 0.358816 0.727343
vt 0.622642 0.717095
vt 0.700440 0.630661
vt 0.773115 0.586929
vt 0.686367 0.581427
vt 0.522323 0.691137
vt 0.494302 0.594522
vt 0.657633 0.416630
vt 0.734924 0.306936
vt 0.614389 0.078617
vt 0.714493 0.224819
vt 0.485337 0.372128
vt 0.564472 0.176624
vt 0.480124 0.268167
vt 0.536975 0.425253
vt 0.478947 0.315740
vt 0.613179 0.432363
vt 0.512642 0.210806
vt 0.651866 0.162886
vt 0.820600 0.634527
vt 0.680999 0.902957
vt 0.455956 0.741145
vt 0.411348 0.732867
vt 0.568775 0.739109
vt 0.317216 0.801088
vt 0.508440 0.806510
vt 0.486469 0.904850
vt 0.276916 0.104365
vt 0.204314 0.112230
vt 0.456456 0.143265
vt 0.108793 0.181185
vt 0.370996 0.208758
vt 0.323259 0.356397
vt 0.509976 0.868188
vt 0.497497 0.637854
vt 0.552385 0.514111
vt 0.688030 0.457317
vt 0.669920 0.691904
vt 0.678764 0.776261
vt 0.514200 0.779772
vt 0.567747 0.718266
vt 0.409077 0.627654
vt 0.981850 0.708391
vt 0.978317 0.890098
vt 0.809522 0.970889
vt 0.686944 0.705067
vt 0.077007 0.547508
vt 0.004929 0.537925
vt 0.112122 0.562887
vt 0.372993 0.572295
vt 0.347042 0.366409
vt 0.340948 0.555210
vt 0.717495 0.376085
vt 0.716447 0.490531
vt 0.560897 0.511020
vt 0.399219 0.394753
vt 0.806434 0.217576
vt 0.406005 0.183870
vt 0.331536 0.164157
vt 0.404135 0.389885
vt 0.000000 0.336376
vt 0.067154 0.080028
vt 0.357169 0.292998
vt 0.104831 0.328659
vt 0.165068 0.134885
vt 0.205157 0.000000
vt 0.350462 0.894573
vt 0.279039 0.925251
vt 0.337861 0.759372
vt 0.249446 0.756492
vt 0.486491 0.762590
vt 0.454404 0.655590
vt 0.555680 0.946255
vn 0.053491 -0.996623 -0.062310
vn 0.053491 -0.996622 -0.062310
vn 0.053491 -0.996623 -0.062310
vn 0.053491 -0.996623 -0.062310
vn 0.053491 -0.996623 -0.062310
vn 0.053491 -0.996623 -0.062310
vn 0.624459 0.539924 0.564387
vn 0.624459 0.539924 0.564387
vn 0.624459 0.539924 0.564387
vn 0.771047 0.530163 -0.352723
vn 0.771047 0.530163 -0.352723
vn 0.771047 0.530163 -0.352723
vn -0.034786 0.502609 -0.863814
vn -0.034786 0.502609 -0.863814
vn -0.034786 0.502609 -0.863814
vn -0.807135 0.460722 -0.369145
vn -0.807135 0.460722 -0.369145
vn -0.807135 0.460722 -0.369145
vn -0.772380 0.490790 0.403180
vn -0.772380 0.490790 0.403180
vn -0.772380 0.490790 0.403180
vn -0.193825 0.531803 0.824389
vn -0.193825 0.531803 0.824389
vn -0.193825 0.531803 0.824389
vn -0.757513 0.534039 0.375470
vn -0.757513 0.534039 0.375470
vn -0.757513 0.534039 0.375470
vn -0.757513 0.534039 0.375470
vn -0.060422 0.501390 0.863109
vn -0.060422 0.501390 0.863109
vn -0.060422 0.501390 0.863109
vn -0.060422 0.501390 0.863109
vn 0.625052 0.533911 0.569429
vn 0.625052 0.533911 0.569429
vn 0.625052 0.533911 0.569429
vn 0.625052 0.533911 0.569429
vn 0.771047 0.530163 -0.352724
vn 0.771047 0.530163 -0.352724
vn 0.771047 0.530163 -0.352724
vn 0.771047 0.530163 -0.352724
vn -0.024267 0.519834 -0.853922
vn -0.024267 0.519834 -0.853922
vn -0.024267 0.519834 -0.853922
vn -0.024267 0.519834 -0.853922
vn -0.774971 0.560569 -0.291861
vn -0.774971 0.560569 -0.291861
vn -0.774971 0.560569 -0.291861
vn -0.774971 0.560569 -0.291861
vn -0.014646 -0.999479 -0.028747
vn -0.014646 -0.999479 -0.028747
vn -0.014646 -0.999479 -0.028747
vn -0.014646 -0.999479 -0.028747
vn -0.014646 -0.999479 -0.028747
vn -0.014646 -0.999479 -0.028747
vn 0.075185 0.582535 -0.809321
vn 0.075185 0.582535 -0.809321
vn 0.075185 0.582535 -0.809321
vn -0.578989 0.650986 -0.490907
vn -0.578989 0.650986 -0.490907
vn -0.578989 0.650986 -0.490907
vn -0.640536 0.687643 0.341849
vn -0.640536 0.687643 0.341849
vn -0.640536 0.687643 0.341849
vn 0.141353 0.667882 0.730721
vn 0.141353 0.667882 0.730721
vn 0.141353 0.667882 0.730721
vn 0.687972 0.685674 0.237795
vn 0.687972 0.685674 0.237795
vn 0.687972 0.685674 0.237795
vn 0.645791 0.664654 -0.375752
vn 0.645791 0.664654 -0.375752
vn 0.645791 0.664654 -0.375752
vn 0.601297 0.700278 -0.384777
vn 0.601297 0.700278 -0.384777
vn 0.601297 0.700278 -0.384777
vn 0.601297 0.700278 -0.384777
vn 0.092017 0.791398 -0.604336
vn 0.092017 0.791398 -0.604336
vn 0.092017 0.791398 -0.604336
vn 0.092017 0.791398 -0.604336
vn -0.555230 0.727355 -0.403330
vn -0.555230 0.727355 -0.403330
vn -0.555230 0.727355 -0.403330
vn -0.555230 0.727355 -0.403330
vn -0.682646 0.619132 0.388163
vn -0.682646 0.619132 0.388163
vn -0.682646 0.619132 0.388163
vn -0.682646 0.619132 0.388163
vn 0.182209 0.732493 0.655937
vn 0.182209 0.732493 0.655937
vn 0.182209 0.732493 0.655937
vn 0.182209 0.732493 0.655937
vn 0.663552 0.689594 0.290100
vn 0.663552 0.689594 0.290100
vn 0.663552 0.689594 0.290100
vn 0.663552 0.689594 0.290100
vn 0.587776 -0.005534 -0.809004
vn 0.587776 -0.005534 -0.809004
vn 0.587776 -0.005534 -0.809005
vn 0.587776 -0.005534 -0.809005
vn 0.000000 0.018230 -0.999834
vn 0.000000 0.018230 -0.999834
vn 0.000000 0.018230 -0.999834
vn 0.000000 0.018230 -0.999834
vn -0.587268 0.041963 -0.808304
vn -0.587268 0.041963 -0.808304
vn -0.587268 0.041963 -0.808304
vn -0.587268 0.041963 -0.808304
vn -0.949532 0.056598 -0.308521
vn -0.949532 0.056598 -0.308521
vn -0.949532 0.056598 -0.308521
vn -0.949532 0.056598 -0.308521
vn -0.949532 0.056598 0.308521
vn -0.949532 0.056598 0.308521
vn -0.949532 0.056598 0.308521
vn -0.949532 0.056598 0.308521
vn -0.587268 0.041963 0.808304
vn -0.587268 0.041963 0.808304
vn -0.587268 0.041963 0.808304
vn -0.587268 0.041963 0.808304
vn 0.000000 0.018230 0.999834
vn 0.000000 0.018230 0.999834
vn 0.000000 0.018230 0.999834
vn 0.000000 0.018230 0.999834
vn 0.587777 -0.005534 0.809004
vn 0.587777 -0.005534 0.809004
vn 0.587777 -0.005534 0.809004
vn 0.587777 -0.005534 0.809004
vn 0.950862 -0.020218 0.308954
vn 0.950862 -0.020218 0.308954
vn 0.950862 -0.020218 0.308954
vn 0.950862 -0.020218 0.308954
vn 0.950862 -0.020218 -0.308953
vn 0.950862 -0.020218 -0.308953
vn 0.950862 -0.020218 -0.308953
vn 0.950862 -0.020218 -0.308953
vn 0.586295 0.071144 -0.806967
vn 0.586295 0.071144 -0.806967
vn 0.586295 0.071144 -0.806967
vn 0.586295 0.071144 -0.806967
vn 0.000000 0.033618 -0.999435
vn 0.000000 0.033618 -0.999435
vn 0.000000 0.033618 -0.999435
vn 0.000000 0.033618 -0.999435
vn -0.587781 -0.004051 -0.809010
vn -0.587781 -0.004051 -0.809010
vn -0.587781 -0.004051 -0.809010
vn -0.587781 -0.004051 -0.809010
vn -0.950701 -0.027333 -0.308903
vn -0.950701 -0.027333 -0.308903
vn -0.950701 -0.027333 -0.308903
vn -0.950701 -0.027333 -0.308903
vn -0.950701 -0.027333 0.308903
vn -0.950701 -0.027333 0.308903
vn -0.950701 -0.027333 0.308903
vn -0.950701 -0.027333 0.308903
vn -0.587780 -0.004051 0.809010
vn -0.587780 -0.004051 0.809010
vn -0.587780 -0.004051 0.809010
vn -0.587780 -0.004051 0.809010
vn 0.000000 0.033618 0.999435
vn 0.000000 0.033618 0.999435
vn 0.000000 0.033618 0.999435
vn 0.000000 0.033618 0.999435
vn 0.586295 0.071144 0.806967
vn 0.586295 0.071144 0.806967
vn 0.586295 0.071144 0.806967
vn 0.586295 0.071144 0.806967
vn 0.946828 0.094197 0.307642
vn 0.946828 0.094197 0.307642
vn 0.946828 0.094197 0.307642
vn 0.946828 0.094197 0.307642
vn 0.946828 0.094197 -0.307642
vn 0.946828 0.094197 -0.307642
vn 0.946828 0.094197 -0.307642
vn 0.946828 0.094197 -0.307642
vn -0.002842 -0.999989 0.003669
vn -0.002842 -0.999989 0.003669
vn -0.002842 -0.999989 0.003669
vn -0.002842 -0.999989 0.003669
vn -0.002842 -0.999989 0.003669
vn -0.002842 -0.999989 0.003669
vn 0.055668 0.735977 -0.674714
vn 0.055668 0.735977 -0.674714
vn 0.055668 0.735977 -0.674714
vn -0.661787 0.709563 -0.241988
vn -0.661787 0.709563 -0.241988
vn -0.661787 0.709563 -0.241988
vn -0.661125 0.708853 0.245849
vn -0.661125 0.708853 0.245849
vn -0.661125 0.708853 0.245849
vn 0.000001 0.752460 0.658638
vn 0.000001 0.752460 0.658638
vn 0.000001 0.752460 0.658638
vn 0.668973 0.681924 0.295727
vn 0.668973 0.681924 0.295727
vn 0.668973 0.681924 0.295727
vn 0.658168 0.670910 -0.341605
vn 0.658168 0.670910 -0.341605
vn 0.658168 0.670910 -0.341605
vn -0.023227 0.374462 -0.926951
vn -0.023227 0.374462 -0.926951
vn -0.023227 0.374462 -0.926951
vn -0.023227 0.374462 -0.926951
vn -0.832379 0.440947 -0.335725
vn -0.832379 0.440947 -0.335725
vn -0.832379 0.440947 -0.335725
vn -0.832379 0.440947 -0.335725
vn -0.876774 0.375861 0.299993
vn -0.876774 0.375861 0.299993
vn -0.876774 0.375861 0.299993
vn -0.876774 0.375861 0.299993
vn -0.217473 0.434375 0.874084
vn -0.217473 0.434375 0.874084
vn -0.217473 0.434375 0.874084
vn -0.217473 0.434375 0.874084
vn 0.686133 0.557634 0.467189
vn 0.686133 0.557634 0.467189
vn 0.686133 0.557634 0.467189
vn 0.686133 0.557634 0.467189
vn 0.736298 0.596985 -0.318551
vn 0.736298 0.596985 -0.318551
vn 0.736298 0.596985 -0.318551
vn 0.736298 0.596985 -0.318551
vn -0.057057 0.448284 -0.892068
vn -0.057057 0.448284 -0.892069
vn -0.057057 0.448284 -0.892069
vn -0.057057 0.448284 -0.892069
vn -0.890658 0.222493 -0.396518
vn -0.890658 0.222493 -0.396518
vn -0.890658 0.222493 -0.396518
vn -0.890658 0.222493 -0.396518
vn -0.949168 0.267980 0.165126
vn -0.949168 0.267980 0.165126
vn -0.949168 0.267980 0.165126
vn -0.949168 0.267980 0.165126
vn -0.249043 0.389516 0.886710
vn -0.249043 0.389516 0.886710
vn -0.249043 0.389516 0.886710
vn -0.249043 0.389516 0.886710
vn 0.668585 0.548961 0.501633
vn 0.668585 0.548961 0.501633
vn 0.668585 0.548961 0.501633
vn 0.668585 0.548961 0.501633
vn 0.736623 0.548706 -0.395359
vn 0.736623 0.548706 -0.395359
vn 0.736623 0.548706 -0.395359
vn 0.736623 0.548706 -0.395359
vn 0.254432 -0.966943 0.016912
vn 0.254432 -0.966943 0.016912
vn 0.254432 -0.966943 0.016912
vn 0.254432 -0.966943 0.016912
vn 0.254432 -0.966943 0.016912
vn 0.254432 -0.966943 0.016912
vn -0.032384 0.352378 -0.935297
vn -0.032384 0.352378 -0.935297
vn -0.032384 0.352378 -0.935297
vn -0.864827 -0.114941 -0.488737
vn -0.864827 -0.114941 -0.488737
vn -0.864827 -0.114941 -0.488737
vn -0.897227 -0.241191 0.369880
vn -0.897227 -0.241191 0.369880
vn -0.897227 -0.241191 0.369880
vn -0.093738 0.085786 0.991894
vn -0.093738 0.085786 0.991894
vn -0.093738 0.085786 0.991894
vn 0.729972 0.495093 0.471193
vn 0.729972 0.495093 0.471193
vn 0.729972 0.495093 0.471193
vn 0.727635 0.593402 -0.344124
vn 0.727635 0.593402 -0.344124
vn 0.727635 0.593402 -0.344124
vn 0.110733 -0.991503 0.068269
vn 0.110733 -0.991503 0.068269
vn 0.110733 -0.991503 0.068269
vn 0.110733 -0.991503 0.068269
vn 0.110733 -0.991503 0.068269
vn 0.110733 -0.991503 0.068269
vn 0.103973 0.510584 -0.853519
vn 0.103973 0.510584 -0.853519
vn 0.103973 0.510584 -0.853519
vn -0.820718 0.289979 -0.492275
vn -0.820718 0.289979 -0.492275
vn -0.820718 0.289979 -0.492275
vn -0.913004 0.275204 0.301144
vn -0.913004 0.275204 0.301144
vn -0.913004 0.275204 0.301144
vn -0.038149 0.523541 0.851146
vn -0.038149 0.523541 0.851146
vn -0.038149 0.523541 0.851146
vn 0.508884 0.636923 0.579108
vn 0.508884 0.636923 0.579108
vn 0.508884 0.636923 0.579108
vn 0.617362 0.652234 -0.439835
vn 0.617362 0.652234 -0.439835
vn 0.617362 0.652234 -0.439835
vn 0.044568 0.501199 -0.864184
vn 0.044568 0.501199 -0.864184
vn 0.044568 0.501199 -0.864184
vn 0.044568 0.501199 -0.864184
vn -0.781144 0.353632 -0.514547
vn -0.781144 0.353632 -0.514547
vn -0.781144 0.353633 -0.514547
vn -0.781144 0.353633 -0.514547
vn -0.867244 0.419000 0.268938
vn -0.867244 0.419000 0.268938
vn -0.867244 0.419000 0.268938
vn -0.867244 0.419000 0.268938
vn -0.079266 0.566554 0.820204
vn -0.079266 0.566554 0.820204
vn -0.079266 0.566554 0.820204
vn -0.079266 0.566554 0.820204
vn 0.599385 0.585254 0.546091
vn 0.599385 0.585254 0.546091
vn 0.599385 0.585254 0.546091
vn 0.599385 0.585254 0.546091
vn 0.725630 0.555962 -0.405422
vn 0.725630 0.555962 -0.405422
vn 0.725630 0.555962 -0.405422
vn 0.725630 0.555962 -0.405422
vn -0.012923 -0.998631 -0.050686
vn -0.012923 -0.998631 -0.050686
vn -0.012923 -0.998631 -0.050686
vn -0.012923 -0.998631 -0.050686
vn -0.012923 -0.998631 -0.050686
vn -0.012923 -0.998631 -0.050686
vn 0.681029 0.459829 0.569875
vn 0.681029 0.459829 0.569875
vn 0.681029 0.459829 0.569875
vn 0.876943 0.460409 -0.137818
vn 0.876943 0.460409 -0.137818
vn 0.876943 0.460409 -0.137818
vn 0.247719 0.522986 -0.815550
vn 0.247719 0.522986 -0.815550
vn 0.247719 0.522986 -0.815550
vn -0.508975 0.650580 -0.563640
vn -0.508975 0.650580 -0.563640
vn -0.508975 0.650580 -0.563640
vn -0.754055 0.623125 0.207646
vn -0.754055 0.623125 0.207646
vn -0.754055 0.623125 0.207646
vn -0.230767 0.534667 0.812944
vn -0.230767 0.534667 0.812944
vn -0.230767 0.534667 0.812944
vn -0.253644 0.620798 0.741805
vn -0.253644 0.620798 0.741805
vn -0.253644 0.620798 0.741805
vn -0.253644 0.620798 0.741805
vn 0.591063 0.635548 0.496712
vn 0.591063 0.635548 0.496712
vn 0.591063 0.635548 0.496712
vn 0.591063 0.635548 0.496712
vn 0.773756 0.625859 -0.097993
vn 0.773756 0.625859 -0.097993
vn 0.773756 0.625859 -0.097993
vn 0.773756 0.625859 -0.097993
vn 0.109349 0.670065 -0.734204
vn 0.109349 0.670065 -0.734204
vn 0.109349 0.670065 -0.734204
vn 0.109349 0.670065 -0.734204
vn -0.601162 0.531009 -0.597188
vn -0.601162 0.531009 -0.597188
vn -0.601162 0.531009 -0.597188
vn -0.601162 0.531009 -0.597188
vn -0.696560 0.680320 0.227967
vn -0.696560 0.680320 0.227967
vn -0.696560 0.680320 0.227967
vn -0.696560 0.680320 0.227967
s off
g polySurface3
usemtl initialShadingGroup
f 1/72/1 6/7/2 5/5/3 4/4/4 3/73/5 2/74/6
f 10/110/7 11/145/8 7/144/9
f 11/106/10 12/142/11 7/143/12
f 12/107/13 13/109/14 7/108/15
f 13/1/16 8/2/17 7/141/18
f 8/140/19 9/6/20 7/3/21
f 9/111/22 10/139/23 7/146/24
f 5/5/25 6/7/26 9/6/27 8/140/28
f 6/7/29 1/72/30 10/139/31 9/111/32
f 1/72/33 2/74/34 11/145/35 10/110/36
f 2/74/37 3/73/38 12/142/39 11/106/40
f 3/73/41 4/4/42 13/109/43 12/107/44
f 4/4/45 5/5/46 8/2/47 13/1/48
f 14/75/49 19/76/50 18/77/51 17/78/52 16/79/53 15/80/54
f 22/119/55 23/121/56 20/159/57
f 23/112/58 24/157/59 20/158/60
f 24/113/61 25/115/62 20/161/63
f 25/123/64 26/117/65 20/114/66
f 26/122/67 21/118/68 20/162/69
f 21/120/70 22/116/71 20/160/72
f 19/76/73 14/75/74 22/116/75 21/120/76
f 14/75/77 15/80/78 23/121/79 22/119/80
f 15/80/81 16/79/82 24/157/83 23/112/84
f 16/79/85 17/78/86 25/115/87 24/113/88
f 17/78/89 18/77/90 26/117/91 25/123/92
f 18/77/93 19/76/94 21/118/95 26/122/96
f 27/27/97 28/33/98 38/34/99 37/28/100
f 28/93/101 29/16/102 39/17/103 38/94/104
f 29/16/105 30/8/106 40/11/107 39/17/108
f 30/8/109 31/9/110 41/10/111 40/11/112
f 31/9/113 32/12/114 42/13/115 41/10/116
f 32/12/117 33/18/118 43/19/119 42/13/120
f 33/18/121 34/31/122 44/32/123 43/19/124
f 34/31/125 35/23/126 45/26/127 44/32/128
f 35/23/129 36/24/130 46/25/131 45/26/132
f 36/24/133 27/27/134 37/28/135 46/25/136
f 37/28/137 38/34/138 48/37/139 47/35/140
f 38/94/141 39/17/142 49/21/143 48/95/144
f 39/17/145 40/11/146 50/15/147 49/21/148
f 40/11/149 41/10/150 51/14/151 50/15/152
f 41/10/153 42/13/154 52/20/155 51/14/156
f 42/13/157 43/19/158 53/22/159 52/20/160
f 43/19/161 44/32/162 54/36/163 53/22/164
f 44/32/165 45/26/166 55/30/167 54/36/168
f 45/26/169 46/25/170 56/29/171 55/30/172
f 46/25/173 37/28/174 47/35/175 56/29/176
f 57/81/177 62/82/178 61/83/179 60/84/180 59/85/181 58/86/182
f 57/81/183 58/86/184 63/125/185
f 58/86/186 59/85/187 63/149/188
f 59/85/189 60/84/190 63/148/191
f 60/84/192 61/83/193 63/147/194
f 61/83/195 62/82/196 63/124/197
f 62/82/198 57/81/199 63/150/200
f 64/57/201 65/38/202 71/96/203 70/97/204
f 65/38/205 66/39/206 72/153/207 71/41/208
f 66/39/209 67/42/210 73/43/211 72/40/212
f 67/42/213 68/54/214 74/101/215 73/102/216
f 68/54/217 69/55/218 75/156/219 74/51/220
f 69/55/221 64/57/222 70/56/223 75/52/224
f 70/97/225 71/96/226 77/98/227 76/99/228
f 71/41/229 72/153/230 78/151/231 77/45/232
f 72/40/233 73/43/234 79/46/235 78/44/236
f 73/102/237 74/101/238 80/103/239 79/104/240
f 74/51/241 75/156/242 81/154/243 80/48/244
f 75/52/245 70/56/246 76/53/247 81/49/248
f 64/57/249 69/55/250 68/54/251 67/42/252 66/39/253 65/38/254
f 76/99/255 77/98/256 82/100/257
f 77/45/258 78/151/259 82/152/260
f 78/44/261 79/46/262 82/47/263
f 79/104/264 80/103/265 82/105/266
f 80/48/267 81/154/268 82/50/269
f 81/49/270 76/53/271 82/155/272
f 83/87/273 88/88/274 87/89/275 86/64/276 85/62/277 84/61/278
f 90/173/279 91/129/280 89/174/281
f 91/58/282 92/171/283 89/172/284
f 92/59/285 93/63/286 89/60/287
f 93/131/288 94/138/289 89/177/290
f 94/130/291 95/175/292 89/128/293
f 95/126/294 90/127/295 89/176/296
f 83/87/297 84/61/298 91/129/299 90/173/300
f 84/61/301 85/62/302 92/171/303 91/58/304
f 85/62/305 86/64/306 93/63/307 92/59/308
f 86/64/309 87/89/310 94/138/311 93/131/312
f 87/89/313 88/88/314 95/175/315 94/130/316
f 88/88/317 83/87/318 90/127/319 95/126/320
f 96/71/321 101/90/322 100/91/323 99/92/324 98/69/325 97/68/326
f 104/70/327 105/168/328 102/165/329
f 105/65/330 106/66/331 102/67/332
f 106/137/333 107/167/334 102/164/335
f 107/136/336 108/163/337 102/134/338
f 108/132/339 103/133/340 102/170/341
f 103/169/342 104/135/343 102/166/344
f 101/90/345 96/71/346 104/135/347 103/169/348
f 96/71/349 97/68/350 105/168/351 104/70/352
f 97/68/353 98/69/354 106/66/355 105/65/356
f 98/69/357 99/92/358 107/167/359 106/137/360
f 99/92/361 100/91/362 108/163/363 107/136/364
f 100/91/365 101/90/366 103/133/367 108/132/368
